<svg width="20" height="20" viewBox="0 0 20 20" fill="none" xmlns="http://www.w3.org/2000/svg">
<circle cx="10" cy="10" r="10" fill="#E1E1E1"/>
<path fill-rule="evenodd" clip-rule="evenodd" d="M14.8107 6.1029C15.0631 5.8506 15.0631 5.44153 14.8107 5.18923C14.5585 4.93692 14.1494 4.93692 13.8971 5.18923L10 9.08633L6.10291 5.18923C5.8506 4.93692 5.44153 4.93692 5.18923 5.18923C4.93692 5.44153 4.93692 5.8506 5.18923 6.1029L9.08633 10L5.18923 13.8971C4.93692 14.1495 4.93692 14.5585 5.18923 14.8108C5.44153 15.0631 5.8506 15.0631 6.10291 14.8108L10 10.9137L13.8971 14.8108C14.1494 15.0631 14.5585 15.0631 14.8107 14.8108C15.0631 14.5585 15.0631 14.1495 14.8107 13.8971L10.9137 10L14.8107 6.1029Z" fill="white"/>
</svg>