<!DOCTYPE svg PUBLIC "-//W3C//DTD SVG 1.1//EN" "http://www.w3.org/Graphics/SVG/1.1/DTD/svg11.dtd">

<!-- Uploaded to: SVG Repo, www.svgrepo.com, Transformed by: SVG Repo Mixer Tools -->
<svg width="93px" height="93px" viewBox="0 0 15 15" xmlns="http://www.w3.org/2000/svg" id="construction" fill="#EF5A39">

<g id="SVGRepo_bgCarrier" stroke-width="0"/>

<g id="SVGRepo_tracerCarrier" stroke-linecap="round" stroke-linejoin="round"/>

<g id="SVGRepo_iconCarrier"> <path d="M13.5,12h-1.8L8.2,1.5C8,0.8,7,0.8,6.8,1.5L3.3,12H1.5C1.2,12,1,12.2,1,12.5v1C1,13.8,1.2,14,1.5,14h12&#10;&#9;c0.3,0,0.5-0.2,0.5-0.5v-1C14,12.2,13.8,12,13.5,12z M7,4H8l0.7,2H6.4L7,4z M5.7,8h3.6l0.7,2H5L5.7,8z"/> </g>

</svg>